#tb 0: 71/1000
0,          0,          0,        1,   192000, 0xb718dc63
0,          1,          1,        1,   192000, 0x2efb7b89
0,          2,          2,        1,   192000, 0x70827047
0,          3,          3,        1,   192000, 0x61e1fd2f
0,          4,          4,        1,   192000, 0x06f8bccd
0,          5,          5,        1,   192000, 0xf0362404
0,          6,          6,        1,   192000, 0xc00fc1b8
0,          7,          7,        1,   192000, 0x94265476
0,          8,          8,        1,   192000, 0x4b50ad23
0,          9,          9,        1,   192000, 0x4d578b60
0,         10,         10,        1,   192000, 0xfb14b875
0,         11,         11,        1,   192000, 0x81682338
